# xmcd
#
# Track frame offsets: 
#        150
#        15724
#        34480
#        53252
#        72429
#        88337
#        103454
#        130695
#        145028
#        159425
#        172733
#        188087
#
# Disc length: 2854 seconds
#
# Revision: 0
# Processed by: cddbd v1.5.1PL0 Copyright (c) Steve Scherf et al.
# Submitted via: ExactAudioCopy v0.95a5
#
DISCID=9d0b240c
DTITLE=Tortilla Flat - Po polsku
DYEAR=2000
DGENRE=Blues
TTITLE0=Z daleka
TTITLE1=Plonaca stodola
TTITLE2=Ide do domu
TTITLE3=Musimy juz
TTITLE4=Sila Bluesa
TTITLE5=Przystanek Toronto
TTITLE6=Monk Blues
TTITLE7=Czarodziej
TTITLE8=Urodzony do Boogie
TTITLE9=Zuzanna
TTITLE10=Wiem dobrze wiem
TTITLE11=Zegarmistrz swiatla
EXTD=Maurycy Meczekalski - gitary\nLeszek Golebiowski - perkusja\nMaci
EXTD=ej Jackowski - gitara basowa\nJacek "Woda" Stachurski - spiew, ha
EXTD=rmonijki\ngoscinnie zagrali:\nPiotr Banaszak - gitara basowa, kon
EXTD=trabas (2-12]\nMarek Stryszowski - saksofon sopranowy (12]\nKrzys
EXTD=ztof Borowiec - saksofon tenorowy (2,5-7,9]\nArtur Grudzinski - o
EXTD=rgany (4]\nDariusz Jaskrowski - instrumenty klawiszowe (3,4,7,9,1
EXTD=1,12]\n\nNagran dokonano w studio 'Teleport' w Bydgoszczy w dniac
EXTD=h\n29 kwietnia - 30 maja oraz 2 - 3 wrzesnia 2000\nRealizacja nag
EXTD=ran: Grzegorz Kazmierczak\nMix: Grzegorz Kazmierczak, Maurycy Mec
EXTD=zekalski\nMastering: Pawel Kuczynski (Radio GRA]\nProjekt okladki
EXTD=: Maurycy Meczekalski\nFotografie: Grzegorz Sledz\nProdukcja: Mau
EXTD=rycy Meczekalski\n\nkontakt:\nMaurycy +48502170610, +48604562173\n
EXTD=fax +48566542963\ne-mail: tortilla@jeremi.pl\nwww.tortilla.jeremi
EXTD=pl\n\nBlack Bottle Records BBR 007CD
EXTT0=M. Meczekalski - W. Slefarski
EXTT1=Cz. Niemen - M. Bellan
EXTT2=M. Meczekalski - M. Zacharski
EXTT3=J. Stachurski - M. Malzahn
EXTT4=M. Meczekalski - M. Zacharski
EXTT5=M. Meczekalski - W. Slefarski
EXTT6=Tortilla Flat
EXTT7=M. Meczekalski - M. Malzahn
EXTT8=M. Meczekalski - Z. Szulkowski
EXTT9=P. Banaszak - Z. Szulkowski
EXTT10=M. Meczekalski - M. Malzahn
EXTT11=T. Wozniak - B. Chorazuk
PLAYORDER=
